# xmcd
# 
# Track frame offsets:
#     150
#     12998
#     25458
#     40911
#     56340
#     71865
#     91606
#     112897
#     130766
#     146838
#     164044
#     180707
#     193118
#     209647
#     226175
#     242210
#     254765
#     270213
#     288686
#     300563
#     316106
# 
# Disc length: 4387
# 
# Revision: 1
# Processed by: cddbd v1.5.2PL0 Copyright (c) Steve Scherf et al.
# Submitted via: fre:ac v1.1beta2
# 
DISCID=35112115
DTITLE=Various Artist - Så mycket bättre - säsong 7
DYEAR=2016
DGENRE=Country
TTITLE0=Danny Saucedo - Snacket på stan
TTITLE1=Jill Johnson - Benen i kors
TTITLE2=Tommy Nilssonn - Så som i himlen
TTITLE3=Lisa Ekdahl - Vita bergens klockor
TTITLE4=Freddie Wadling - En dag
TTITLE5=Little Jinder - Platsen i mitt hjärta
TTITLE6=Magnus Carlson - Keep On dreaming
TTITLE7=Jill Johnson - Open Your Heart
TTITLE8=Danny Saucedo - Super 8
TTITLE9=Lisa Ekdahl - Crazy In Love
TTITLE10=Tommy Nilsson - Ljudlöst och salt
TTITLE11=Little Jinder - Freak
TTITLE12=Magnus Carlson - Eternal Love
TTITLE13=Freddie Wadling - Vem vet
TTITLE14=Jill Johnson - Your Grace
TTITLE15=Danny Saucedo - Skepp
TTITLE16=Lisa Ekdahl - Amelia
TTITLE17=Magnus Carlson - Dom band som binder mig
TTITLE18=Freddie Wadling - Baby Goodbye
TTITLE19=Tommy Nilsson - Ljudet av tårar
TTITLE20=Little Jinder - Du vill ha sex med mig
EXTD=
EXTT0=
EXTT1=
EXTT2=
EXTT3=
EXTT4=
EXTT5=
EXTT6=
EXTT7=
EXTT8=
EXTT9=
EXTT10=
EXTT11=
EXTT12=
EXTT13=
EXTT14=
EXTT15=
EXTT16=
EXTT17=
EXTT18=
EXTT19=
EXTT20=
PLAYORDER=
